<?xml version="1.0" encoding="utf-8"?>
<!-- Generator: Adobe Illustrator 23.0.6, SVG Export Plug-In . SVG Version: 6.00 Build 0)  -->
<svg version="1.1" id="Calque_1" xmlns="http://www.w3.org/2000/svg" xmlns:xlink="http://www.w3.org/1999/xlink" x="0px" y="0px"
	 viewBox="0 0 563.7 563.6" style="enable-background:new 0 0 563.7 563.6;" xml:space="preserve">
<style type="text/css">
	.st0{fill:#F8435D;}
</style>
<path class="st0" d="M283,563.6c-22.2,0-34.8-6.3-39.3-9.1c-9.2-5.2-15.2-15.2-15.2-25.6V495c0-1.5-0.8-3.3-2.1-3.5h-0.2l-0.2-0.1
	c-19-5.4-35.6-12.4-51-21.2l-0.3-0.2l-0.3-0.2c-0.3-0.2-0.6-0.3-1.1-0.3c-1,0-2.2,0.6-3.1,1.4l-24,24c-5.3,5.3-12.9,8.4-20.6,8.4
	c-2.8,0-5.6-0.4-8.2-1.2l-0.2-0.1c-12.6-4.2-23.6-11.1-33.7-21.2s-17.1-21.1-21.2-33.7l-0.1-0.2c-3-10.1-0.2-21.4,7.2-28.8L92.7,395
	c1.5-1.5,1.8-3.3,1.1-4.2l-0.2-0.3l-0.2-0.3c-8.9-15.3-15.8-32-21.2-51l-0.1-0.2v-0.2c-0.3-1.3-2-2.1-3.5-2.1h-34
	c-10.4,0-20.5-6-25.7-15.3l-0.1-0.2l0-0.2C5.7,314.1,0,301.2,0,282.2c0-22.2,6.3-34.8,9.1-39.3c5.2-9.2,15.2-15.2,25.6-15.2h33.9
	c1.5,0,3.3-0.8,3.5-2.1v-0.2l0.1-0.2c5.4-19,12.4-35.6,21.2-51l0.2-0.3l0.2-0.3c0.6-0.8,0.3-2.7-1.1-4.2l-24-24
	c-7.4-7.4-10.2-18.7-7.2-28.8l0.1-0.2c4.2-12.6,11.1-23.6,21.2-33.7s21.1-17.1,33.7-21.2l0.2-0.1c2.6-0.8,5.4-1.2,8.2-1.2
	c7.7,0,15.3,3.1,20.6,8.4l23.3,24.1c0.8,0.8,2,1.4,3,1.4c0.4,0,0.8-0.1,1.1-0.3l0.3-0.2l0.3-0.2c15.3-8.9,32-15.8,51-21.2l0.2-0.1
	h0.2c1.3-0.3,2.1-2,2.1-3.5v-34c0-10.4,6-20.5,15.3-25.7l0.2-0.1l0.2-0.1c6.9-3.1,19.7-8.8,38.7-8.8c22.2,0,34.8,6.3,39.3,9.1
	c9.2,5.2,15.2,15.2,15.2,25.6v33.9c0,1.5,0.8,3.3,2.1,3.5h0.2l0.2,0.1c19,5.4,35.6,12.4,51,21.2l0.3,0.2l0.3,0.2
	c0.3,0.2,0.6,0.3,1.1,0.3c1,0,2.2-0.5,3.1-1.4L419,67.9c5.3-5.3,12.9-8.4,20.6-8.4c2.8,0,5.6,0.4,8.2,1.2l0.2,0.1
	c12.6,4.2,23.6,11.1,33.7,21.2s17.1,21.1,21.2,33.7l0.1,0.2c3,10.1,0.2,21.4-7.2,28.8l-24,24c-1.5,1.5-1.8,3.3-1.1,4.2l0.2,0.3
	l0.2,0.3c8.9,15.3,15.8,32,21.2,51l0.1,0.2v0.2c0.3,1.3,2,2.1,3.5,2.1h33.9c10.4,0,20.5,6,25.7,15.3l0.1,0.2
	c3.9,7.7,8.9,20.1,8,38.3c0,22.1-6.3,34.7-9.1,39.2c-5.2,9.2-15.2,15.2-25.6,15.2H495c-1.5,0-3.3,0.8-3.5,2.1v0.2l-0.1,0.2
	c-5.4,19-12.4,35.6-21.2,51L470,389l-0.2,0.3c-0.6,0.8-0.3,2.7,1.1,4.2l25.6,24.8c7.5,7.5,10.3,18.8,7.3,28.9l-0.1,0.2
	c-4.2,12.6-11.1,23.6-21.2,33.7s-21.1,17.1-33.7,21.2l-0.2,0.1c-2.7,0.8-5.4,1.2-8.2,1.2c-7.7,0-15.3-3.1-20.6-8.4l-24-24
	c-0.9-0.9-2.1-1.4-3.1-1.4c-0.4,0-0.8,0.1-1.1,0.3l-0.3,0.2l-0.3,0.2c-15.3,8.9-32,15.8-51,21.2l-0.2,0.1h-0.2
	c-1.3,0.3-2.1,2-2.1,3.5V529c0,10.4-6,20.5-15.3,25.7l-0.2,0.1l-0.2,0.1C314.9,557.9,302.1,563.6,283,563.6z M256.6,529.5
	c0,0,0.2,0.2,0.7,0.5c2.6,1.7,10.1,5.7,25,5.7c14,0,21.5-3.5,24.5-5.4c0.9-1,1.3-1.9,1.3-2.2v-33.9c0-14.9,9.1-27.1,23.2-31.1h0.1
	c15.1-4,30.3-10.3,44.1-18.4c4.7-2.8,10.2-4.2,15.8-4.2c8.5,0,16.7,3.4,22.6,9.2l23.6,23.6c1.1,0.7,1.7,0.8,1.9,0.8
	c0.1,0,0.1,0,0.2,0c4.2-1.4,12.5-5.1,21.8-14.4l0.2-0.2c9.4-8.6,12.9-17.1,14.1-21.4l0.1-0.2c0.1-0.4-0.1-1.4-0.3-1.7l-23.9-23.9
	c-10.7-9.8-13.2-26-5.9-38.4c8.1-13.8,14.5-29,18.5-44.1l0.1-0.2c4.1-13.4,17.2-23,31.1-23H529c1,0,1.4-0.1,1.4-0.1s0.2-0.2,0.5-0.7
	c2.2-3.2,5.7-10.9,4.9-25.5v-0.2v-0.2c0-14-3.5-21.5-5.4-24.5c-1-0.9-1.9-1.3-2.2-1.3h-33.9c-14.9,0-27.1-9.1-31.1-23.2v-0.1
	c-4-15.1-10.3-30.3-18.4-44.1c-7.1-12.2-5-28.3,5-38.3l23.6-23.6c0.6-1,0.8-1.7,0.7-2.1l-0.1-0.2c-1.3-4.6-4.9-12.2-14.3-21.6
	l-0.2-0.2c-8.6-9.4-17.1-12.9-21.4-14.1l-0.2-0.1c0,0-0.1,0-0.3,0c-0.6,0-1.2,0.2-1.4,0.4l-23.9,23.9c-5.9,6.4-14.2,10.1-23,10.1
	c-5.5,0-10.8-1.4-15.5-4.2c-13.8-8.1-29-14.5-44.1-18.5l-0.2-0.1c-13.4-4.1-23-17.2-23-31.1V33c0-1-0.1-1.4-0.1-1.4l0,0
	c0,0-0.2-0.2-0.7-0.5c-2.6-1.7-10.1-5.7-25-5.7c-14,0-21.5,3.5-24.5,5.4c-0.9,1-1.3,1.9-1.3,2.2v33.9c0,14.9-9.1,27.1-23.2,31.1
	h-0.1c-15.1,4-30.3,10.4-44.1,18.4c-4.7,2.8-10.2,4.2-15.8,4.2c-8.5,0-16.7-3.4-22.6-9.2l-23.6-23.6c-1.1-0.7-1.7-0.8-1.9-0.8
	c-0.1,0-0.1,0-0.2,0l-0.2,0.1c-4.6,1.3-12.2,4.9-21.6,14.3c-9.6,9.6-13.1,18.2-14.3,22.4l-0.1,0.2c-0.1,0.4,0.1,1.4,0.3,1.7
	l23.9,23.9c10.7,9.8,13.2,26,5.9,38.4c-8.1,13.8-14.5,29-18.5,44.1l-0.1,0.2c-4.1,13.4-17.2,23-31.1,23H33.8c-1,0-1.4,0.1-1.4,0.1
	s-0.2,0.2-0.5,0.7c-1.7,2.6-5.7,10.1-5.7,25c0,14,3.5,21.5,5.4,24.5c1,0.9,1.9,1.3,2.2,1.3h33.9c14.9,0,27.1,9.1,31.1,23.2v0.1
	c4,15.1,10.4,30.3,18.4,44.1c7.1,12.2,5,28.3-5,38.3l-23.6,23.6c-0.6,0.9-0.8,1.7-0.7,2.1c1.4,4.2,5.1,12.5,14.4,21.8
	c9.6,9.6,18.2,13.1,22.4,14.3l0.2,0.1c0,0,0.1,0,0.3,0c0.6,0,1.2-0.2,1.4-0.4l23.8-23.8c5.5-6.3,14.2-10.1,23.2-10.1
	c5.7,0,10.7,1.3,15.3,4.1c13.7,8.1,29,14.5,44.1,18.4l0.2,0.1c13.4,4.1,23,17.2,23,31.1v33.9C256.4,529.2,256.5,529.5,256.6,529.5
	L256.6,529.5z"/>
<path class="st0" d="M280.4,391.4c-29.3-0.9-56.5-12.9-76.7-34c-20.6-20.6-31.5-48.3-30.6-77.8c0.9-29.3,12.9-56.5,34-76.7
	c20.1-20,45.8-30.6,74.4-30.6c1.1,0,2.3,0,3.4,0.1c29.7,0.9,56.2,12.7,76.7,34c20.6,20.6,31.5,48.3,30.6,77.8
	c-0.9,29.3-12.9,56.5-34,76.7c-19.8,19.7-46.4,30.6-75.2,30.6L280.4,391.4z M282.2,199.3c-21,0-40.2,7.8-55.7,22.5
	c-15.9,15.2-24.8,35-25.6,57.4c-0.8,21,7.4,42.2,22.5,58c15.2,15.9,35,24.8,57.4,25.6c0.9,0,1.8,0,2.7,0c20.1,0,40.2-8.2,55.3-22.5
	c15.1-14.3,23.9-34.2,25.6-57.5c0.7-21-7.5-42.1-22.5-57.9c-15.1-15.9-34.9-24.7-57.3-25.6L282.2,199.3L282.2,199.3z"/>
</svg>
