<?xml version="1.0" encoding="utf-8"?>
<!-- Generator: Adobe Illustrator 23.1.0, SVG Export Plug-In . SVG Version: 6.00 Build 0)  -->
<svg version="1.1" id="Calque_1" xmlns="http://www.w3.org/2000/svg" xmlns:xlink="http://www.w3.org/1999/xlink" x="0px" y="0px"
	 viewBox="0 0 586.38 586.38" style="enable-background:new 0 0 586.38 586.38;" xml:space="preserve">
<style type="text/css">
	.st0{fill:#FFFFFF;}
</style>
<path class="st0" d="M294.34,586.38c-24.04,0-38.5-6.64-45.09-10.69c-12.61-7.23-20.75-21.08-20.75-35.35v-28.29
	c-15.32-4.72-29.42-10.58-42.83-17.81l-20.12,20.12c-7.45,7.45-17.88,11.72-28.62,11.72c-3.98,0-7.86-0.57-11.53-1.7l-0.89-0.27
	l-0.34-0.17c-14-4.8-26.22-12.55-37.35-23.68c-11.28-11.28-19.04-23.52-23.69-37.39l-0.18-0.36l-0.28-0.94
	c-4.17-14.05-0.23-29.77,10.05-40.05L92.1,402.3c-7.11-13.06-12.96-27.16-17.78-42.83H45.94c-14.46,0-28.43-8.29-35.6-21.11
	l-0.12-0.22l-1.42-2.83v-0.48C5.41,327.13,0,313.21,0,293.64c0-24.04,6.64-38.5,10.69-45.09c7.23-12.61,21.08-20.75,35.35-20.75
	h28.29c4.72-15.32,10.59-29.42,17.81-42.82l-20.12-20.12c-10.28-10.28-14.22-26-10.05-40.05l0.28-0.95l0.2-0.39
	c4.8-14,12.55-26.22,23.67-37.35c11.28-11.28,23.51-19.03,37.38-23.69l0.31-0.15l0.9-0.28c3.67-1.13,7.55-1.7,11.53-1.7
	c10.74,0,21.17,4.27,28.62,11.72l19.45,20.11c13.02-7.08,27.08-12.91,42.7-17.7V46.04c0-14.46,8.28-28.43,21.1-35.6l0.23-0.13
	l0.84-0.42l0.22-0.1C256.47,6.62,271.2,0,292.74,0c24.04,0,38.51,6.64,45.09,10.69c12.61,7.23,20.75,21.08,20.75,35.35v28.29
	c15.32,4.72,29.43,10.59,42.83,17.81l20.92-20.84c7.43-7.43,17.86-11.7,28.6-11.7c3.98,0,7.87,0.57,11.53,1.7l0.9,0.28l0.34,0.17
	c14,4.8,26.22,12.55,37.34,23.67c11.28,11.28,19.04,23.52,23.69,37.39l0.18,0.36l0.28,0.94c4.17,14.05,0.23,29.77-10.05,40.05
	l-20.09,20.09c7.12,13.06,12.97,27.17,17.79,42.85h28.29c14.46,0,28.43,8.28,35.6,21.1l0.13,0.24l0.22,0.45
	c6.9,13.62,9.92,27.92,9.19,43.63c-0.05,23.79-6.65,38.15-10.69,44.71c-7.23,12.61-21.08,20.75-35.35,20.75h-28.29
	c-4.71,15.29-10.56,29.37-17.76,42.74l21.67,21c10.34,10.34,14.32,26.1,10.15,40.15l-0.28,0.95l-0.2,0.39
	c-4.8,14-12.55,26.22-23.67,37.34c-11.27,11.28-23.51,19.03-37.37,23.69l-0.36,0.18l-0.97,0.29c-3.78,1.12-7.52,1.67-11.42,1.67
	c-10.74,0-21.17-4.27-28.62-11.72l-20.09-20.09c-13.06,7.12-27.17,12.97-42.85,17.79v28.09c0,14.46-8.28,28.43-21.1,35.6l-0.24,0.13
	l-0.91,0.45l-0.59,0.26C329.71,580.2,315.5,586.38,294.34,586.38z M278.88,533.79c3.03,1.01,7.79,2.01,14.76,2.01
	c6.81,0,11.5-0.96,14.46-1.92v-28.25c0-20.1,12.34-36.59,31.44-42.01l1.52-0.43h0.17c13.76-3.78,27.51-9.59,39.86-16.84
	c6.3-3.76,13.77-5.76,21.54-5.76c11.36,0,22.5,4.54,30.55,12.45l19.39,19.39c3.25-1.79,7.51-4.69,12.15-9.32l0.37-0.37l0.2-0.18
	c4.66-4.27,7.4-8.36,8.98-11.47l-19.18-19.18c-14.49-13.44-17.78-35.4-7.82-52.33c7.61-12.96,13.6-27.23,17.31-41.25l0.3-1.12
	l0.23-0.46c5.83-17.47,23.17-30.06,41.63-30.06h27.88c0.83-2.93,1.57-7.56,1.2-14.34l-0.02-0.31v-0.71c0-6.81-0.96-11.5-1.92-14.46
	h-28.25c-20.1,0-36.59-12.34-42.01-31.44l-0.43-1.52v-0.17c-3.78-13.76-9.59-27.51-16.84-39.86c-9.66-16.61-6.81-38.48,6.76-52.06
	l19.36-19.36c-1.64-3.01-4.5-7.14-9.46-12.11l-0.38-0.38l-0.17-0.19c-4.23-4.63-8.3-7.36-11.4-8.95l-19.26,19.26
	c-8.05,8.63-19.39,13.57-31.17,13.57c-7.57,0-14.94-2-21.3-5.8c-12.91-7.58-27.18-13.57-41.2-17.28l-1.13-0.3l-0.46-0.23
	c-17.47-5.83-30.05-23.17-30.05-41.63V50.09c-3.04-0.98-7.71-1.92-14.46-1.92c-6.81,0-11.5,0.96-14.46,1.92v28.25
	c0,20.1-12.34,36.59-31.44,42.01l-1.52,0.43h-0.17c-13.47,3.71-27.22,9.51-39.86,16.84c-6.35,3.77-13.8,5.76-21.54,5.76
	c-11.36,0-22.5-4.54-30.55-12.45L133,111.43c-3,1.64-7.11,4.5-12.04,9.42c-4.99,4.99-7.88,9.5-9.54,12.82l19.18,19.18
	c14.49,13.44,17.78,35.4,7.82,52.33c-7.61,12.96-13.6,27.23-17.31,41.25l-0.3,1.12l-0.23,0.46c-5.83,17.47-23.17,30.05-41.63,30.05
	H50.79c-0.98,3.04-1.92,7.71-1.92,14.46c0,6.81,0.96,11.5,1.92,14.46h28.25c20.1,0,36.59,12.34,42.01,31.44l0.43,1.52v0.17
	c3.71,13.48,9.53,27.25,16.87,39.92c9.63,16.55,6.78,38.43-6.79,52l-19.25,19.25c1.78,3.26,4.69,7.55,9.35,12.21
	c4.96,4.96,9.44,7.85,12.75,9.51l19.06-19.06c7.65-8.57,19.38-13.67,31.46-13.67c7.87,0,14.79,1.87,21.13,5.71
	c12.86,7.59,27.07,13.52,41.11,17.15l1.15,0.3l0.5,0.25c17.47,5.83,30.06,23.17,30.06,41.63V533.79z"/>
<path class="st0" d="M294.12,414.28l-2.82-0.11c-32.19-0.99-62.18-14.27-84.37-37.4c-22.81-22.86-34.82-53.42-33.83-86.08
	c0.99-32.29,14.28-62.28,37.41-84.47c22.28-22.13,50.74-33.82,82.32-33.82c1.16,0,2.57,0,4.05,0.11
	c32.5,1.06,61.58,13.98,84.14,37.38c22.82,22.86,34.83,53.43,33.84,86.09c-0.99,32.29-14.28,62.28-37.41,84.47
	c-21.96,21.81-51.48,33.83-83.12,33.83H294.12z M294.84,362.9c17.17,0,34.49-7.07,47.5-19.39c12.91-12.22,20.54-29.46,22.07-49.87
	c0.53-17.91-6.53-35.94-19.4-49.5c-12.93-13.61-29.98-21.24-49.31-22.07h-2.16c-17.96,0-34.52,6.7-47.9,19.39
	c-13.74,13.13-21.38,30.29-22.07,49.58c-0.69,18.04,6.37,36.17,19.37,49.76c13.12,13.72,30.2,21.36,49.41,22.09H294.84z"/>
<path class="st0" d="M291.74,402.84c-29.3-0.9-56.5-12.9-76.7-34c-20.6-20.6-31.5-48.3-30.6-77.8c0.9-29.3,12.9-56.5,34-76.7
	c20.1-20,45.8-30.6,74.4-30.6c1.1,0,2.3,0,3.4,0.1c29.7,0.9,56.2,12.7,76.7,34c20.6,20.6,31.5,48.3,30.6,77.8
	c-0.9,29.3-12.9,56.5-34,76.7c-19.8,19.7-46.4,30.6-75.2,30.6L291.74,402.84z M293.54,210.74c-21,0-40.2,7.8-55.7,22.5
	c-15.9,15.2-24.8,35-25.6,57.4c-0.8,21,7.4,42.2,22.5,58c15.2,15.9,35,24.8,57.4,25.6c0.9,0,1.8,0,2.7,0c20.1,0,40.2-8.2,55.3-22.5
	c15.1-14.3,23.9-34.2,25.6-57.5c0.7-21-7.5-42.1-22.5-57.9c-15.1-15.9-34.9-24.7-57.3-25.6L293.54,210.74L293.54,210.74z"/>
</svg>
