<?xml version="1.0" encoding="utf-8"?>
<!-- Generator: Adobe Illustrator 23.1.0, SVG Export Plug-In . SVG Version: 6.00 Build 0)  -->
<svg version="1.1"
	 id="Calque_1" xmlns:cc="http://creativecommons.org/ns#" xmlns:dc="http://purl.org/dc/elements/1.1/" xmlns:inkscape="http://www.inkscape.org/namespaces/inkscape" xmlns:rdf="http://www.w3.org/1999/02/22-rdf-syntax-ns#" xmlns:sodipodi="http://sodipodi.sourceforge.net/DTD/sodipodi-0.dtd" xmlns:svg="http://www.w3.org/2000/svg"
	 xmlns="http://www.w3.org/2000/svg" xmlns:xlink="http://www.w3.org/1999/xlink" x="0px" y="0px" viewBox="0 0 271.9 206.3"
	 style="enable-background:new 0 0 271.9 206.3;" xml:space="preserve">
<style type="text/css">
	.st0{fill-rule:evenodd;clip-rule:evenodd;fill:#444444;}
</style>
<g transform="translate(0,-280.06667)">
	<path class="st0" d="M271.9,383.2c0,1.2-0.5,2.4-1.4,3.3l-98.5,98.4c-1.4,1.3-3.3,1.7-5.1,1c-1.8-0.7-2.9-2.4-2.9-4.3v-51.6
		c0-2.6-2.1-4.7-4.7-4.7l-154.7,0c-1.2,0-2.4-0.5-3.3-1.4c-0.9-0.9-1.4-2.1-1.4-3.3v-75c0-1.2,0.5-2.4,1.4-3.3
		c0.9-0.9,2.1-1.4,3.3-1.4c17.3,0,139.5,0,154.7,0c2.6,0,4.7-2.1,4.7-4.7v-51.6c0-1.9,1.1-3.6,2.9-4.3c1.8-0.7,3.8-0.3,5.1,1
		l98.5,98.4C271.5,380.8,271.9,382,271.9,383.2L271.9,383.2z"/>
</g>
</svg>
