<?xml version="1.0" encoding="utf-8"?>
<!-- Generator: Adobe Illustrator 23.1.0, SVG Export Plug-In . SVG Version: 6.00 Build 0)  -->
<svg version="1.1" id="Calque_1" xmlns="http://www.w3.org/2000/svg" xmlns:xlink="http://www.w3.org/1999/xlink" x="0px" y="0px"
	 viewBox="0 0 188.43 188.14" style="enable-background:new 0 0 188.43 188.14;" xml:space="preserve">
<style type="text/css">
	.st0{fill:#FFFFFF;}
</style>
<title>School, education, study, learning, Edit, pencil, write</title>
<g>
	<path class="st0" d="M179.87,21.02L167.12,8.27c-10.96-11-28.77-11.03-39.77-0.07c-0.02,0.02-0.05,0.05-0.07,0.07L12.81,122.74l0,0
		c-1.31,1.34-2.19,3.03-2.53,4.88L0.24,176.65c-1.17,5.04,1.97,10.08,7.02,11.25c1.39,0.32,2.84,0.32,4.23,0l48.94-9.38
		c1.93-0.35,3.7-1.3,5.06-2.72L179.87,61.43c11.16-10.81,11.44-28.61,0.64-39.77C180.3,21.44,180.08,21.23,179.87,21.02z
		 M21.53,166.62l3.66-18.19l14.53,14.53L21.53,166.62z M59.03,155.46L32.68,129.4l85.03-85.03l26.06,26.06L59.03,155.46z
		 M166.65,47.27l-9.38,9.38l-26.34-25.5l9.38-9.38c3.66-3.63,9.56-3.63,13.22,0l12.84,12.84C169.73,38.12,169.85,43.62,166.65,47.27
		z"/>
</g>
</svg>
