<svg height='300px' width='300px'  fill="#ffffff" xmlns="http://www.w3.org/2000/svg" xmlns:xlink="http://www.w3.org/1999/xlink" version="1.1" x="0px" y="0px" viewBox="0 0 100 100" style="enable-background:new 0 0 100 100;" xml:space="preserve"><path d="M93.8,50.2c-1.1,0-2.1,0.9-2.1,2.1c0,23.5-19.1,42.5-42.5,42.5S6.6,75.7,6.6,52.3c0-22.5,17.5-40.9,39.6-42.4  l-1.9,1.4c-0.9,0.7-1.1,2-0.4,2.9c0.4,0.5,1,0.8,1.6,0.8c0.4,0,0.9-0.1,1.3-0.4l6.9-5.2c0.5-0.4,0.8-1,0.8-1.7  c0-0.7-0.4-1.3-0.9-1.7l-6.9-4.6C45.8,0.7,44.5,1,43.9,2c-0.6,0.9-0.4,2.2,0.6,2.9l1.4,0.9C21.7,7.5,2.5,27.7,2.5,52.3  c0,25.7,20.9,46.7,46.7,46.7S95.8,78,95.8,52.3C95.8,51.1,94.9,50.2,93.8,50.2z"></path><circle cx="92.2" cy="41.5" r="2.5"></circle><circle cx="88.9" cy="32.1" r="2.5"></circle><circle cx="82.9" cy="23.3" r="2.5"></circle><circle cx="74.5" cy="15.8" r="2.5"></circle><circle cx="64.6" cy="10.5" r="2.5"></circle><path d="M73.2,46c-1.9-1.3-3.7,0-4.5,0.9l-4.5,6.5c0,0-0.8,1.2-2.2,0.9c-1.1-0.2-1.3-2.5-1.2-3.2l1.8-18.9  c0-0.2,0.2-1.3-0.5-2.2c-0.5-0.6-1.2-1-2.2-1.1c-0.8-0.1-1.5,0.1-2.1,0.6c-1.1,1-1.2,2.8-1.2,3.1L55,46.1c0,0-0.2,1.6-1.1,1.6  c-0.2,0-0.4-0.5-0.6-2.2c-0.3-2.9-1.6-17.6-1.6-17.7c0-0.1-0.2-1.4-1.3-2.1c-0.7-0.5-1.6-0.6-2.6-0.4c-2.7,0.6-2.9,3.3-2.6,4.7  l1.3,16.7c0,0,0.1,1.1-0.2,1.5c-0.1,0.1-0.2,0.2-0.4,0.2c-0.6,0.1-1-1.4-1.2-2.1l-4.2-14.2c0-0.1-0.4-1.3-1.5-1.8  c-0.6-0.3-1.4-0.3-2.2-0.1c-2.7,1-1.4,5.2-1.3,5.4l3.2,13.4c0.1,0.4,0.4,1.6,0.1,2.2c-0.1,0.2-0.2,0.3-0.4,0.3  c-0.7-0.1-2.7-3.9-4.2-8.3c0,0-0.4-1.1-1.5-1.6c-0.7-0.3-1.5-0.3-2.4,0.1c-0.8,0.4-1.3,0.9-1.6,1.6c-0.4,1.2,0.2,2.4,0.3,2.8  l6.8,21.3c0,0.1,2.5,8.6,11.7,10.3c0.8,0.1,3.2,0.2,3.9,0.2c8,0,12-8,12.1-8.1l10.4-19.3C74.5,49.7,75,47.3,73.2,46z"></path></svg>