<?xml version="1.0" encoding="utf-8"?>
<!-- Generator: Adobe Illustrator 23.0.6, SVG Export Plug-In . SVG Version: 6.00 Build 0)  -->
<svg version="1.1" id="Calque_1" xmlns="http://www.w3.org/2000/svg" xmlns:xlink="http://www.w3.org/1999/xlink" x="0px" y="0px"
	 viewBox="0 0 222 180" style="enable-background:new 0 0 222 180;" xml:space="preserve">
<style type="text/css">
	.st0{fill:#FFFFFF;}
</style>
<g>
	<path class="st0" d="M202.8,84H69c-3.3,0-6,2.7-6,6s2.7,6,6,6h133.8l-34.2,34.2c-2.4,2.4-2.4,6,0,8.4c1.2,1.2,2.7,1.8,4.2,1.8
		s3-0.6,4.2-1.8l44.4-44.4v-1.8c0.3-0.6,0.6-1.5,0.6-2.4s-0.3-1.5-0.6-2.4v-1.8L177,41.1c-2.4-2.4-6-2.4-8.4,0s-2.4,6,0,8.4
		L202.8,84z"/>
	<path class="st0" d="M19.5,180h110.7c10.8,0,19.5-8.7,19.5-19.5V132c0-3.3-2.7-6-6-6c-3.3,0-6,2.7-6,6v28.5c0,4.2-3.3,7.5-7.5,7.5
		H19.5c-4.2,0-7.5-3.3-7.5-7.5v-141c0-4.2,3.3-7.5,7.5-7.5h110.7c4.2,0,7.5,3.3,7.5,7.5V48c0,3.3,2.7,6,6,6c3.3,0,6-2.7,6-6V19.5
		C149.7,8.7,141,0,130.2,0H19.5C8.7,0,0,8.7,0,19.5v140.7C0,171.3,8.7,180,19.5,180z"/>
</g>
</svg>
