<?xml version="1.0" encoding="utf-8"?>
<!-- Generator: Adobe Illustrator 23.1.0, SVG Export Plug-In . SVG Version: 6.00 Build 0)  -->
<svg version="1.1" id="Calque_1" xmlns="http://www.w3.org/2000/svg" xmlns:xlink="http://www.w3.org/1999/xlink" x="0px" y="0px"
	 viewBox="0 0 246 220.8" style="enable-background:new 0 0 246 220.8;" xml:space="preserve">
<style type="text/css">
	.st0{fill:#FFFFFF;}
</style>
<g>
	<path class="st0" d="M18,177h69.9l23.7,37.5c2.4,3.9,6.6,6.3,11.1,6.3s8.7-2.4,11.1-6.3l23.7-37.5H228c9.9,0,18-8.1,18-18V18
		c0-9.9-8.1-18-18-18H18C8.1,0,0,8.1,0,18v141C0,168.9,8.1,177,18,177z M18,18h210v141h-75c-3,0-6,1.5-7.5,4.2L123,198.6l-22.5-35.4
		c-1.8-2.7-4.5-4.2-7.5-4.2H18V18z"/>
</g>
</svg>
