<?xml version="1.0" encoding="utf-8"?>
<!-- Generator: Adobe Illustrator 24.0.0, SVG Export Plug-In . SVG Version: 6.00 Build 0)  -->
<svg version="1.1" id="Calque_1" xmlns="http://www.w3.org/2000/svg" xmlns:xlink="http://www.w3.org/1999/xlink" x="0px" y="0px"
	 viewBox="0 0 262.5 262.5" style="enable-background:new 0 0 262.5 262.5;" xml:space="preserve">
<style type="text/css">
	.st0{fill-rule:evenodd;clip-rule:evenodd;fill:#FFFFFF;}
</style>
<path class="st0" d="M225,150h-37.5v-37.5H150V150h-37.5v37.5H150V225h-37.5H75v-37.5V150H37.5H0v-37.5V75V37.5V0h37.5H75h37.5H150
	v37.5V75h37.5V37.5H225V75h37.5v37.5V150v37.5H225V150z M37.5,37.5V75v37.5H75h37.5V75V37.5H75H37.5z M225,0h37.5v37.5H225V0z
	 M150,150h37.5v37.5H150V150z M0,187.5h37.5V225H0V187.5z M37.5,225H75v37.5H37.5V225z M225,225h37.5v37.5H225V225z M150,225h37.5
	v37.5H150V225z M56.3,56.3h37.5v37.5H56.3V56.3z"/>
</svg>
