<?xml version="1.0" encoding="utf-8"?>
<!-- Generator: Adobe Illustrator 23.1.0, SVG Export Plug-In . SVG Version: 6.00 Build 0)  -->
<svg version="1.1" id="Calque_1" xmlns="http://www.w3.org/2000/svg" xmlns:xlink="http://www.w3.org/1999/xlink" x="0px" y="0px"
	 viewBox="0 0 299.7 299.7" style="enable-background:new 0 0 299.7 299.7;" xml:space="preserve">
<style type="text/css">
	.st0{fill:#FFFFFF;}
</style>
<g>
	<path class="st0" d="M126.8,0c69.1,0,125.9,56.8,125.9,126.8c0,26.5-8.5,51.1-21.8,71l61.5,62.5c21.8,21.8-10.4,53.9-32.2,32.2
		l-62.5-61.5c-19.9,13.2-44.5,21.8-71,21.8C56.8,252.7,0,195.9,0,126.8C0,56.8,56.8,0,126.8,0z M126.8,36.9
		c-50.2,0-89.9,39.7-89.9,89.9c0,49.2,39.7,89.9,89.9,89.9c49.2,0,89.9-40.7,89.9-89.9C216.7,76.7,176,36.9,126.8,36.9z"/>
</g>
</svg>
