<?xml version="1.0" encoding="utf-8"?>
<!-- Generator: Adobe Illustrator 23.0.6, SVG Export Plug-In . SVG Version: 6.00 Build 0)  -->
<svg version="1.1"
	 id="Calque_1" xmlns:cc="http://creativecommons.org/ns#" xmlns:dc="http://purl.org/dc/elements/1.1/" xmlns:inkscape="http://www.inkscape.org/namespaces/inkscape" xmlns:rdf="http://www.w3.org/1999/02/22-rdf-syntax-ns#" xmlns:sodipodi="http://sodipodi.sourceforge.net/DTD/sodipodi-0.dtd" xmlns:svg="http://www.w3.org/2000/svg"
	 xmlns="http://www.w3.org/2000/svg" xmlns:xlink="http://www.w3.org/1999/xlink" x="0px" y="0px" viewBox="0 0 216.8 246.3"
	 style="enable-background:new 0 0 216.8 246.3;" xml:space="preserve">
<style type="text/css">
	.st0{fill:#FFFFFF;}
</style>
<g transform="matrix(0,-0.93857685,0.93857685,0,20.250958,-18.12071)">
	<path class="st0" d="M-126.8-7.6c0-7.7-6.2-13.9-13.9-13.9c-7.7,0-13.9,6.2-13.9,13.9c0,7.7,6.2,13.9,13.9,13.9
		C-133.1,6.3-126.8,0.1-126.8-7.6 M-91,26.2c0-7.7-6.2-13.9-13.9-13.9c-7.7,0-13.9,6.2-13.9,13.9s6.2,13.9,13.9,13.9
		C-97.2,40.2-91,33.9-91,26.2 M-55.2,60.1c0-7.7-6.2-13.9-13.9-13.9c-7.7,0-13.9,6.2-13.9,13.9c0,7.7,6.2,13.9,13.9,13.9
		C-61.4,74-55.2,67.8-55.2,60.1 M-19.3,93.9c0-7.7-6.2-13.9-13.9-13.9c-7.7,0-13.9,6.2-13.9,13.9s6.2,13.9,13.9,13.9
		C-25.5,107.9-19.3,101.6-19.3,93.9 M-55.2,127.8c0-7.7-6.2-13.9-13.9-13.9c-7.7,0-13.9,6.2-13.9,13.9s6.2,13.9,13.9,13.9
		C-61.4,141.7-55.2,135.5-55.2,127.8 M-91,161.6c0-7.7-6.2-13.9-13.9-13.9c-7.7,0-13.9,6.2-13.9,13.9s6.2,13.9,13.9,13.9
		C-97.2,175.6-91,169.3-91,161.6 M-126.8,195.5c0-7.7-6.2-13.9-13.9-13.9c-7.7,0-13.9,6.2-13.9,13.9c0,7.7,6.2,13.9,13.9,13.9
		C-133.1,209.4-126.8,203.2-126.8,195.5 M-253.9-7.6c0-7.7-6.2-13.9-13.9-13.9c-7.7,0-13.9,6.2-13.9,13.9c0,7.7,6.2,13.9,13.9,13.9
		C-260.1,6.3-253.9,0.1-253.9-7.6 M-218,26.2c0-7.7-6.2-13.9-13.9-13.9c-7.7,0-13.9,6.2-13.9,13.9s6.2,13.9,13.9,13.9
		C-224.3,40.2-218,33.9-218,26.2 M-182.2,60.1c0-7.7-6.2-13.9-13.9-13.9c-7.7,0-13.9,6.2-13.9,13.9c0,7.7,6.2,13.9,13.9,13.9
		C-188.4,74-182.2,67.8-182.2,60.1 M-146.3,93.9c0-7.7-6.2-13.9-13.9-13.9c-7.7,0-13.9,6.2-13.9,13.9s6.2,13.9,13.9,13.9
		C-152.6,107.9-146.3,101.6-146.3,93.9 M-182.2,127.8c0-7.7-6.2-13.9-13.9-13.9c-7.7,0-13.9,6.2-13.9,13.9s6.2,13.9,13.9,13.9
		C-188.4,141.7-182.2,135.5-182.2,127.8 M-218,161.6c0-7.7-6.2-13.9-13.9-13.9c-7.7,0-13.9,6.2-13.9,13.9s6.2,13.9,13.9,13.9
		C-224.3,175.6-218,169.3-218,161.6 M-253.9,195.5c0-7.7-6.2-13.9-13.9-13.9c-7.7,0-13.9,6.2-13.9,13.9c0,7.7,6.2,13.9,13.9,13.9
		C-260.1,209.4-253.9,203.2-253.9,195.5"/>
</g>
</svg>
