<svg height='300px' width='300px'  fill="#ca1d1d" xmlns="http://www.w3.org/2000/svg" xmlns:xlink="http://www.w3.org/1999/xlink" version="1.1" x="0px" y="0px" viewBox="0 0 100 100" style="enable-background:new 0 0 100 100;" xml:space="preserve"><g><path d="M16.2,84.6c1.5,0.4,3.1,0.4,4.7,0.4c9.7,0,19.4,0,29.1,0c9.7,0,19.4,0,29.1,0c1.6,0,3.2,0,4.7-0.4c6-1.6,8.7-8.3,5.4-13.8   C78.9,53.7,68.5,36.6,58.1,19.5c-1.9-3.2-5-4.7-8.1-4.8c-3.1,0-6.1,1.6-8.1,4.8c-10.5,17-20.8,34.1-31.1,51.3   C7.5,76.3,10.2,83,16.2,84.6z M50,75.7C50,75.7,50,75.7,50,75.7C50,75.7,50,75.7,50,75.7c-2.5,0-4.5-2-4.6-4.5c0-2.5,2-4.5,4.6-4.5   c2.5,0,4.6,2,4.6,4.5C54.5,73.7,52.5,75.6,50,75.7z M45,38c0.1-2.9,2.1-4.9,4.9-5c0,0,0,0,0.1,0s0,0,0.1,0c2.9,0,4.9,2.1,4.9,5   c0.1,3.1,0.1,15.1,0,18c-0.1,3.1-2,4.7-5,4.7c-3,0-4.9-1.6-5-4.7C44.9,53.1,44.9,41.1,45,38z"></path></g></svg>